HIERARCHY
ROOT Hips
{
	OFFSET -32.860001 56.121803 44.745396
	CHANNELS 6 Xposition Yposition Zposition Zrotation Xrotation Yrotation
	JOINT Chest
	{
		OFFSET -0.637402 0.831600 5.390099
		CHANNELS 6 Xposition Yposition Zposition Zrotation Xrotation Yrotation
		JOINT Chest2
		{
			OFFSET 0.000000 0.000000 4.429901
			CHANNELS 6 Xposition Yposition Zposition Zrotation Xrotation Yrotation
			JOINT Neck
			{
				OFFSET 0.000000 0.000000 10.301395
				CHANNELS 6 Xposition Yposition Zposition Zrotation Xrotation Yrotation
				JOINT Head
				{
					OFFSET 0.000000 0.000000 2.173897
					CHANNELS 6 Xposition Yposition Zposition Zrotation Xrotation Yrotation
					End Site
					{
						OFFSET 0.000000 0.000000 8.298004
					}
				}
			}
			JOINT LeftCollar
			{
				OFFSET 2.142401 -0.572701 5.717800
				CHANNELS 6 Xposition Yposition Zposition Zrotation Xrotation Yrotation
				JOINT LeftShoulder
				{
					OFFSET 5.674000 0.000000 0.000000
					CHANNELS 6 Xposition Yposition Zposition Zrotation Xrotation Yrotation
					JOINT LeftElbow
					{
						OFFSET 0.000000 0.000000 -12.238701
						CHANNELS 6 Xposition Yposition Zposition Zrotation Xrotation Yrotation
						JOINT LeftWrist
						{
							OFFSET 0.000000 0.000000 -10.253700
							CHANNELS 6 Xposition Yposition Zposition Zrotation Xrotation Yrotation
							End Site
							{
								OFFSET 0.000000 0.000000 -2.173901
							}
						}
					}
				}
			}
			JOINT RightCollar
			{
				OFFSET -2.882599 -1.580101 6.695801
				CHANNELS 6 Xposition Yposition Zposition Zrotation Xrotation Yrotation
				JOINT RightShoulder
				{
					OFFSET -4.235600 0.000000 0.000000
					CHANNELS 6 Xposition Yposition Zposition Zrotation Xrotation Yrotation
					JOINT RightElbow
					{
						OFFSET 0.000000 0.000000 -10.709900
						CHANNELS 6 Xposition Yposition Zposition Zrotation Xrotation Yrotation
						JOINT RightWrist
						{
							OFFSET 0.000000 0.000000 -11.716801
							CHANNELS 6 Xposition Yposition Zposition Zrotation Xrotation Yrotation
							End Site
							{
								OFFSET 0.000000 0.000000 -2.173901
							}
						}
					}
				}
			}
		}
	}
	JOINT LeftHip
	{
		OFFSET 2.279499 0.210400 -2.475502
		CHANNELS 6 Xposition Yposition Zposition Zrotation Xrotation Yrotation
		JOINT LeftKnee
		{
			OFFSET 0.000000 -0.000004 -20.742800
			CHANNELS 6 Xposition Yposition Zposition Zrotation Xrotation Yrotation
			JOINT LeftAnkle
			{
				OFFSET 0.000000 0.000000 -16.666000
				CHANNELS 6 Xposition Yposition Zposition Zrotation Xrotation Yrotation
				End Site
				{
					OFFSET 0.000000 -8.310898 0.000000
				}
			}
		}
	}
	JOINT RightHip
	{
		OFFSET -1.961899 0.232300 -2.727402
		CHANNELS 6 Xposition Yposition Zposition Zrotation Xrotation Yrotation
		JOINT RightKnee
		{
			OFFSET 0.000000 -0.000004 -20.526800
			CHANNELS 6 Xposition Yposition Zposition Zrotation Xrotation Yrotation
			JOINT RightAnkle
			{
				OFFSET 0.000000 0.000000 -16.867300
				CHANNELS 6 Xposition Yposition Zposition Zrotation Xrotation Yrotation
				End Site
				{
					OFFSET 0.000000 -7.186401 0.000000
				}
			}
		}
	}
}
MOTION
Frames: 5
Frame Time: 0.041667
-20.097996 64.887001 34.463593 2175.950300 36.413139 10.737294 -0.637401 0.831605 5.390098 -3.486049 31.416490 11.004791 0.000001 0.000007 4.429902 -4.979491 -7.030049 -0.817941 0.000001 -0.000004 10.301392 371.323016 -7.663236 4.842260 0.000001 0.000009 2.173898 -358.806885 -3.171814 0.244586 2.142400 -0.572702 5.717807 -11.040219 2.655543 5.108471 5.673994 0.000008 -0.000001 -42.476226 -706.685850 281.729129 -0.000003 0.000003 -12.238697 -356.007355 4.651444 -1.130510 0.000000 0.000003 -10.253701 165.284704 10.595305 -21.827365 -2.882597 -1.580101 6.695794 22.449819 17.369333 -5.511913 -4.235601 0.000003 -0.000002 -1545.689185 169.683646 -472.414405 -0.000004 -0.000001 -10.709902 508.517802 -181.030694 182.751342 -0.000000 -0.000001 -11.716804 -573.030140 -24.062707 -24.126393 2.279497 0.210405 -2.475510 484.881577 -34.917143 91.282985 -0.000002 -0.000005 -20.742805 -635.235132 -76.340970 -59.915587 -0.000004 0.000000 -16.666000 502.457184 14.114933 50.509037 -1.961892 0.232302 -2.727407 -1192.108761 -35.679337 -51.248736 -0.000003 -0.000008 -20.526804 945.305285 127.196181 -165.286548 0.000005 0.000006 -16.867298 15.161022 25.921055 2.090185
-20.624496 65.265610 33.897392 2177.625172 37.098685 9.079365 -0.637407 0.831610 5.390107 -4.271632 33.150630 11.423870 0.000005 -0.000000 4.429896 -5.328361 -7.280562 -0.863040 -0.000003 -0.000009 10.301407 370.271276 -5.494090 5.016987 -0.000005 0.000003 2.173897 -358.836392 -2.716986 0.156671 2.142397 -0.572703 5.717810 -10.964557 3.028235 5.129998 5.673994 0.000006 -0.000001 -44.076939 -697.871027 281.519251 -0.000001 0.000001 -12.238697 -367.461555 4.872220 -0.489479 -0.000005 0.000000 -10.253701 188.563000 9.430354 -24.406822 -2.882607 -1.580102 6.695806 22.246220 18.282762 -3.168148 -4.235608 0.000003 -0.000010 -1543.875415 171.983835 -465.590828 -0.000004 0.000000 -10.709903 511.292334 -181.268330 182.544756 -0.000001 -0.000016 -11.716809 -566.705932 -25.266004 -22.396906 2.279490 0.210410 -2.475495 485.843486 -34.165279 92.825720 -0.000010 -0.000007 -20.742804 -638.274402 -76.605551 -64.778361 0.000001 0.000001 -16.666000 501.677558 15.200811 50.345396 -1.961897 0.232309 -2.727398 -1194.778764 -35.357113 -54.243665 -0.000002 -0.000008 -20.526802 950.552181 124.007753 -167.073681 -0.000000 0.000000 -16.867298 9.988656 22.919863 4.078634
-21.123199 65.625710 33.384686 2179.360805 37.865947 7.480595 -0.637407 0.831608 5.390105 -5.081406 34.657821 11.800329 -0.000001 0.000010 4.429897 -5.476141 -7.544840 -0.883986 -0.000009 0.000000 10.301397 369.045612 -3.486101 4.945089 -0.000007 -0.000003 2.173908 -358.764019 -2.429164 0.139137 2.142393 -0.572699 5.717802 -10.984344 3.657324 5.037084 5.673997 -0.000003 0.000007 -44.542778 -690.659003 280.498384 -0.000003 -0.000000 -12.238693 -373.203613 4.032000 0.052681 -0.000005 0.000004 -10.253700 204.184284 7.674423 -25.949723 -2.882609 -1.580094 6.695805 21.576549 18.895816 -1.019183 -4.235607 0.000005 -0.000008 -1542.303160 173.893912 -459.151161 -0.000004 0.000002 -10.709903 514.631586 -181.438306 182.496398 0.000010 -0.000007 -11.716803 -560.696567 -26.595023 -21.251334 2.279493 0.210413 -2.475499 486.749880 -33.440709 94.299771 -0.000007 -0.000010 -20.742800 -640.659559 -76.592683 -69.068949 -0.000004 0.000003 -16.666002 500.986179 16.361341 50.205459 -1.961894 0.232309 -2.727396 -1197.469858 -34.917375 -57.265641 0.000006 -0.000010 -20.526806 961.492833 120.115379 -173.804463 0.000001 0.000003 -16.867302 2.517866 19.698793 5.599071
-21.591698 65.965202 32.930286 2181.150424 38.682394 5.903100 -0.637407 0.831598 5.390105 -5.906629 35.973736 12.164174 -0.000003 -0.000001 4.429902 -5.579042 -7.845165 -0.904998 0.000000 0.000001 10.301395 367.858252 -1.562190 4.674399 -0.000005 -0.000005 2.173910 -358.786832 -2.123910 0.097640 2.142402 -0.572697 5.717811 -11.206174 3.117976 4.975457 5.673993 0.000013 -0.000006 -44.148089 -684.596745 279.670565 0.000002 -0.000001 -12.238700 -375.467820 2.884001 0.481751 0.000002 0.000002 -10.253695 213.609030 6.002024 -26.352922 -2.882600 -1.580094 6.695793 20.676400 19.381306 0.976587 -4.235611 -0.000001 0.000007 -1540.922260 175.496301 -452.944049 0.000009 0.000006 -10.709898 518.073510 -181.594595 182.320657 -0.000008 -0.000009 -11.716804 -554.777362 -27.641436 -20.292260 2.279490 0.210403 -2.475510 487.575403 -32.720622 95.659074 0.000002 0.000004 -20.742798 -642.288477 -76.355778 -72.642832 0.000001 0.000000 -16.666000 500.384030 17.564052 50.071458 -1.961900 0.232304 -2.727407 -1200.145544 -34.385956 -60.262930 0.000000 -0.000003 -20.526800 968.348266 116.992657 -177.774825 0.000001 0.000005 -16.867302 -1.849776 16.821993 7.180947
-22.049294 66.291397 32.554497 2182.098345 39.933859 5.025030 -0.637404 0.831607 5.390096 -5.957130 36.682999 12.360134 -0.000001 0.000015 4.429895 -5.630613 -8.177575 -0.926350 0.000001 0.000004 10.301389 366.695836 0.272119 4.212525 0.000002 0.000005 2.173903 -358.752927 -1.845696 0.103052 2.142400 -0.572701 5.717798 -11.290249 3.832653 4.890571 5.673993 0.000004 -0.000001 -42.447413 -681.391583 276.947287 -0.000001 -0.000002 -12.238697 -376.633952 1.758603 0.941156 0.000002 -0.000001 -10.253706 219.389282 4.649491 -26.024639 -2.882599 -1.580102 6.695784 19.663652 19.857599 2.595127 -4.235602 -0.000010 0.000005 -1539.821779 176.933264 -446.825894 -0.000002 -0.000002 -10.709901 521.628650 -181.786209 182.234952 0.000002 -0.000010 -11.716804 -548.888810 -28.350502 -19.407964 2.279500 0.210406 -2.475511 489.160882 -32.288770 97.390807 -0.000007 -0.000007 -20.742805 -642.206624 -76.058296 -74.879541 0.000000 0.000005 -16.666002 499.791006 18.718854 50.009767 -1.961893 0.232304 -2.727404 -1202.120507 -33.578576 -63.557069 -0.000001 -0.000006 -20.526802 982.947495 114.146203 -189.166761 0.000001 0.000005 -16.867298 -8.197641 13.993879 7.285999
